<?xml version="1.0" encoding="UTF-8"?>
<svg width="121.48mm" height="52.07mm" version="1.1" viewBox="0 0 121.48 52.07" xmlns="http://www.w3.org/2000/svg"><defs><style>.cls-1{fill:#e91e63;}</style><style>.cls-1{fill:#6a00a2;}</style></defs><g transform="translate(-.027742 -.045805)"><path class="cls-1" d="m43.419 0.045805a8.6836 8.6836 0 0 0-8.6783 8.6783c0 4.789 4.0746 8.6783 8.6783 8.6783 2.1696 0 5.9531-1.3494 8.6783 0v-8.6783a8.6836 8.6836 0 0 0-8.6783-8.6783z" style="fill:#e91e63;stroke-width:.26458"/><path class="cls-1" d="m8.7061 0.045805a8.6836 8.6836 0 0 0-8.6783 8.6783c0 4.789 4.0746 8.6783 8.6783 8.6783 2.1696 0 5.9531-1.3494 8.6783 0v-8.6783a8.6836 8.6836 0 0 0-8.6783-8.6783z" style="fill:#e91e63;stroke-width:.26458"/><path class="cls-1" d="m112.83 0.15464a8.6836 8.6836 0 0 0-8.6783 8.6783c0 4.789 4.0746 8.6783 8.6783 8.6783 2.1696 0 5.9531-1.3494 8.6783 0v-8.6783a8.6836 8.6836 0 0 0-8.6783-8.6783z" style="fill:#e91e63;stroke-width:.26458"/><path class="cls-1" d="m112.83 17.371a8.6836 8.6836 0 0 0-8.6783 8.6783c0 4.789 4.0746 8.6783 8.6783 8.6783 2.1696 0 5.9531-1.3494 8.6783 0v-8.6783a8.6836 8.6836 0 0 0-8.6783-8.6783z" style="fill:#6f7070;stroke-width:.26458"/><path class="cls-1" d="m112.83 34.588a8.6836 8.6836 0 0 0-8.6783 8.6783c0 4.789 4.0746 8.6783 8.6783 8.6783 2.1696 0 5.9531-1.3494 8.6783 0v-8.6783a8.6836 8.6836 0 0 0-8.6783-8.6783z" style="fill:#e27b1d;stroke-width:.26458"/><path class="cls-1" d="m26.063 0.045805a8.6836 8.6836 0 0 0-8.6783 8.6783c0 4.789 4.0746 8.6783 8.6783 8.6783 2.1696 0 5.9531-1.3494 8.6783 0v-8.6783a8.6836 8.6836 0 0 0-8.6783-8.6783z" style="fill:#e91e63;stroke-width:.26458"/><path class="cls-1" d="m8.7061 17.402a8.6836 8.6836 0 0 0-8.6783 8.6783c0 4.789 4.0746 8.6783 8.6783 8.6783 2.1696 0 5.9531-1.3494 8.6783 0v-8.6783a8.6836 8.6836 0 0 0-8.6783-8.6783z" style="fill:#6f7070;stroke-width:.26458"/><path class="cls-1" d="m26.063 17.402a8.6836 8.6836 0 0 0-8.6783 8.6783c0 4.789 4.0746 8.6783 8.6783 8.6783 2.1696 0 5.9531-1.3494 8.6783 0v-8.6783a8.6836 8.6836 0 0 0-8.6783-8.6783z" style="fill:#6f7070;stroke-width:.26458"/><path class="cls-1" d="m78.133 17.402a8.6836 8.6836 0 0 0-8.6783 8.6783c0 4.789 4.0746 8.6783 8.6783 8.6783 2.1696 0 5.9531-1.3494 8.6783 0v-8.6783a8.6836 8.6836 0 0 0-8.6783-8.6783z" style="fill:#6f7070;stroke-width:.26458"/><path class="cls-1" d="m8.7061 34.759a8.6836 8.6836 0 0 0-8.6783 8.6783c0 4.789 4.0746 8.6783 8.6783 8.6783 2.1696 0 5.9531-1.3494 8.6783 0v-8.6783a8.6836 8.6836 0 0 0-8.6783-8.6783z" style="fill:#e27b1d;stroke-width:.26458"/><path class="cls-1" d="m60.776 34.759a8.6836 8.6836 0 0 0-8.6783 8.6783c0 4.789 4.0746 8.6783 8.6783 8.6783 2.1696 0 5.9531-1.3494 8.6783 0v-8.6783a8.6836 8.6836 0 0 0-8.6783-8.6783z" style="fill:#e27b1d;stroke-width:.26458"/><path class="cls-1" d="m95.489 0.045805a8.6836 8.6836 0 0 0-8.6783 8.6783c0 4.789 4.0746 8.6783 8.6783 8.6783 2.1696 0 5.9531-1.3494 8.6783 0v-8.6783a8.6836 8.6836 0 0 0-8.6783-8.6783z" style="fill:#e91e63;stroke-width:.26458"/><path class="cls-1" d="m78.133 34.759a8.6836 8.6836 0 0 0-8.6783 8.6783c0 4.789 4.0746 8.6783 8.6783 8.6783 2.1696 0 5.9531-1.3494 8.6783 0v-8.6783a8.6836 8.6836 0 0 0-8.6783-8.6783z" style="fill:#e27b1d;stroke-width:.26458"/><path class="cls-1" d="m60.776 17.402a8.6836 8.6836 0 0 0-8.6783 8.6783c0 4.789 4.0746 8.6783 8.6783 8.6783 2.1696 0 5.9531-1.3494 8.6783 0v-8.6783a8.6836 8.6836 0 0 0-8.6783-8.6783z" style="fill:#6f7070;stroke-width:.26458"/><path class="cls-1" d="m43.419 34.759a8.6836 8.6836 0 0 0-8.6783 8.6783c0 4.789 4.0746 8.6783 8.6783 8.6783 2.1696 0 5.9531-1.3494 8.6783 0v-8.6783a8.6836 8.6836 0 0 0-8.6783-8.6783z" style="fill:#e27b1d;stroke-width:.26458"/><path class="cls-1" d="m95.489 34.759a8.6836 8.6836 0 0 0-8.6783 8.6783c0 4.789 4.0746 8.6783 8.6783 8.6783 2.1696 0 5.9531-1.3494 8.6783 0v-8.6783a8.6836 8.6836 0 0 0-8.6783-8.6783z" style="fill:#e27b1d;stroke-width:.26458"/><path class="cls-1" d="m78.133 0.045805a8.6836 8.6836 0 0 0-8.6783 8.6783c0 4.789 4.0746 8.6783 8.6783 8.6783 2.1696 0 5.9531-1.3494 8.6783 0v-8.6783a8.6836 8.6836 0 0 0-8.6783-8.6783z" style="fill:#e91e63;stroke-width:.26458"/><path class="cls-1" d="m60.776 0.045805a8.6836 8.6836 0 0 0-8.6783 8.6783c0 4.789 4.0746 8.6783 8.6783 8.6783 2.1696 0 5.9531-1.3494 8.6783 0v-8.6783a8.6836 8.6836 0 0 0-8.6783-8.6783z" style="fill:#e91e63;stroke-width:.26458"/><path class="cls-1" d="m43.419 17.402a8.6836 8.6836 0 0 0-8.6783 8.6783c0 4.789 4.0746 8.6783 8.6783 8.6783 2.1696 0 5.9531-1.3494 8.6783 0v-8.6783a8.6836 8.6836 0 0 0-8.6783-8.6783z" style="fill:#6f7070;stroke-width:.26458"/><path class="cls-1" d="m95.489 17.402a8.6836 8.6836 0 0 0-8.6783 8.6783c0 4.789 4.0746 8.6783 8.6783 8.6783 2.1696 0 5.9531-1.3494 8.6783 0v-8.6783a8.6836 8.6836 0 0 0-8.6783-8.6783z" style="fill:#6f7070;stroke-width:.26458"/><path class="cls-1" d="m26.063 34.759a8.6836 8.6836 0 0 0-8.6783 8.6783c0 4.789 4.0746 8.6783 8.6783 8.6783 2.1696 0 5.9531-1.3494 8.6783 0v-8.6783a8.6836 8.6836 0 0 0-8.6783-8.6783z" style="fill:#e27b1d;stroke-width:.26458"/><g transform="matrix(.1748 0 0 .1748 2.8257 2.9324)" style="fill:#f9f9f9"><path class="st0" d="m30.1 0s25.6 9.2 21.3 30.9c-1.2 4.1-3.4 8.4-9 12-5.6 3.5-14 8.9-6.9 21.9 0 0-28.3-10.4-20.4-33.5 2.2-6.5 10.6-10.5 13-13.1s7.9-5.5 2-18.2z" style="fill:#f9f9f9"/><path class="st0" d="m54.8 39.1s-3.6 7.2-11.6 11.6c-5.4 3-5.5 11.3-0.9 14.3 5.4 3.6 14.9-2.1 12.5-25.9z" style="fill:#f9f9f9"/></g><g transform="matrix(.1748 0 0 .1748 2.7934 20.221)" style="fill:#f9f9f9"><path class="st0" d="m30.1 0s25.6 9.2 21.3 30.9c-1.2 4.1-3.4 8.4-9 12-5.6 3.5-14 8.9-6.9 21.9 0 0-28.3-10.4-20.4-33.5 2.2-6.5 10.6-10.5 13-13.1s7.9-5.5 2-18.2z" style="fill:#f9f9f9"/><path class="st0" d="m54.8 39.1s-3.6 7.2-11.6 11.6c-5.4 3-5.5 11.3-0.9 14.3 5.4 3.6 14.9-2.1 12.5-25.9z" style="fill:#f9f9f9"/></g><g transform="matrix(.1748 0 0 .1748 2.7934 37.51)" style="fill:#f9f9f9"><path class="st0" d="m30.1 0s25.6 9.2 21.3 30.9c-1.2 4.1-3.4 8.4-9 12-5.6 3.5-14 8.9-6.9 21.9 0 0-28.3-10.4-20.4-33.5 2.2-6.5 10.6-10.5 13-13.1s7.9-5.5 2-18.2z" style="fill:#f9f9f9"/><path class="st0" d="m54.8 39.1s-3.6 7.2-11.6 11.6c-5.4 3-5.5 11.3-0.9 14.3 5.4 3.6 14.9-2.1 12.5-25.9z" style="fill:#f9f9f9"/></g><path class="st2" d="m29.488 8.0786c1.1068 0 1.9847-0.87784 1.9847-1.9656 0-1.0878-0.87784-1.9656-1.9847-1.9656-1.1068 0-2.0038 0.87784-2.0038 1.9656 0 1.0878 0.916 1.9656 2.0038 1.9656zm-5.3052 0c1.374 0 2.4808-1.0878 2.4808-2.4427 0-1.3549-1.1068-2.4427-2.4808-2.4427s-2.4808 1.0878-2.4808 2.4427c0 1.3549 1.1068 2.4427 2.4808 2.4427zm0.17175 0.85875c-1.3358 0-4.0075 0.66792-4.0075 1.9656v3.3205h8.015v-3.3205c0-1.3168-2.6717-1.9656-4.0075-1.9656zm4.58 0c-0.17175 0-0.36258 0.019085-0.55342 0.019085 0.66792 0.47708 1.1259 1.1068 1.1259 1.9465v3.3205h3.435v-3.3205c0-1.3168-2.6717-1.9656-4.0075-1.9656z" style="fill:#f9f9f9;stroke-width:.19083"/><path class="st2" d="m29.504 25.183c1.1068 0 1.9847-0.87784 1.9847-1.9656 0-1.0878-0.87784-1.9656-1.9847-1.9656-1.1068 0-2.0038 0.87784-2.0038 1.9656 0 1.0878 0.916 1.9656 2.0038 1.9656zm-5.3052 0c1.374 0 2.4808-1.0878 2.4808-2.4427s-1.1068-2.4427-2.4808-2.4427-2.4808 1.0878-2.4808 2.4427 1.1068 2.4427 2.4808 2.4427zm0.17175 0.85875c-1.3358 0-4.0075 0.66792-4.0075 1.9656v3.3205h8.015v-3.3205c0-1.3168-2.6717-1.9656-4.0075-1.9656zm4.58 0c-0.17175 0-0.36258 0.01909-0.55342 0.01909 0.66792 0.47708 1.1259 1.1068 1.1259 1.9465v3.3205h3.435v-3.3205c0-1.3168-2.6717-1.9656-4.0075-1.9656z" style="fill:#f9f9f9;stroke-width:.19083"/><path class="st2" d="m29.576 42.287c1.1068 0 1.9847-0.87784 1.9847-1.9656s-0.87784-1.9656-1.9847-1.9656c-1.1068 0-2.0038 0.87784-2.0038 1.9656s0.916 1.9656 2.0038 1.9656zm-5.3052 0c1.374 0 2.4808-1.0878 2.4808-2.4427 0-1.3549-1.1068-2.4427-2.4808-2.4427s-2.4808 1.0878-2.4808 2.4427c0 1.3549 1.1068 2.4427 2.4808 2.4427zm0.17175 0.85875c-1.3358 0-4.0075 0.66792-4.0075 1.9656v3.3205h8.015v-3.3205c0-1.3168-2.6717-1.9656-4.0075-1.9656zm4.58 0c-0.17175 0-0.36258 0.01909-0.55342 0.01909 0.66792 0.47708 1.1259 1.1068 1.1259 1.9465v3.3205h3.435v-3.3205c0-1.3168-2.6717-1.9656-4.0075-1.9656z" style="fill:#f9f9f9;stroke-width:.19083"/><g transform="matrix(.028716 0 0 .03095 37.996 2.7111)" style="fill:#f9f9f9"><path d="m403.63 74.18c-9.113 4.041-18.573 7.229-28.28 9.537 10.696-10.164 18.738-22.877 23.275-37.067 1.295-4.051-3.105-7.554-6.763-5.385-13.504 8.01-28.05 14.019-43.235 17.862-0.881 0.223-1.79 0.336-2.702 0.336-2.766 0-5.455-1.027-7.57-2.891-16.156-14.239-36.935-22.081-58.508-22.081-9.335 0-18.76 1.455-28.014 4.325-28.672 8.893-50.795 32.544-57.736 61.724-2.604 10.945-3.309 21.9-2.097 32.56 0.139 1.225-0.44 2.08-0.797 2.481-0.627 0.703-1.516 1.106-2.439 1.106-0.103 0-0.209-5e-3 -0.314-0.015-62.762-5.831-119.36-36.068-159.36-85.14-2.04-2.503-5.952-2.196-7.578 0.593-7.834 13.44-11.974 28.812-11.974 44.454 0 23.972 9.631 46.563 26.36 63.032-7.035-1.668-13.844-4.295-20.169-7.808-3.06-1.7-6.825 0.485-6.868 3.985-0.438 35.612 20.412 67.3 51.646 81.569-0.629 0.015-1.258 0.022-1.888 0.022-4.951 0-9.964-0.478-14.898-1.421-3.446-0.658-6.341 2.611-5.271 5.952 10.138 31.651 37.39 54.981 70.002 60.278-27.066 18.169-58.585 27.753-91.39 27.753l-10.227-6e-3c-3.151 0-5.816 2.054-6.619 5.106-0.791 3.006 0.666 6.177 3.353 7.74 36.966 21.513 79.131 32.883 121.96 32.883 37.485 0 72.549-7.439 104.22-22.109 29.033-13.449 54.689-32.674 76.255-57.141 20.09-22.792 35.8-49.103 46.692-78.201 10.383-27.737 15.871-57.333 15.871-85.589v-1.346c-1e-3 -4.537 2.051-8.806 5.631-11.712 13.585-11.03 25.415-24.014 35.16-38.591 2.573-3.849-1.485-8.673-5.719-6.795z" style="fill:#f9f9f9"/></g><g transform="matrix(.028716 0 0 .03095 37.996 20.048)" style="fill:#f9f9f9"><path d="m403.63 74.18c-9.113 4.041-18.573 7.229-28.28 9.537 10.696-10.164 18.738-22.877 23.275-37.067 1.295-4.051-3.105-7.554-6.763-5.385-13.504 8.01-28.05 14.019-43.235 17.862-0.881 0.223-1.79 0.336-2.702 0.336-2.766 0-5.455-1.027-7.57-2.891-16.156-14.239-36.935-22.081-58.508-22.081-9.335 0-18.76 1.455-28.014 4.325-28.672 8.893-50.795 32.544-57.736 61.724-2.604 10.945-3.309 21.9-2.097 32.56 0.139 1.225-0.44 2.08-0.797 2.481-0.627 0.703-1.516 1.106-2.439 1.106-0.103 0-0.209-5e-3 -0.314-0.015-62.762-5.831-119.36-36.068-159.36-85.14-2.04-2.503-5.952-2.196-7.578 0.593-7.834 13.44-11.974 28.812-11.974 44.454 0 23.972 9.631 46.563 26.36 63.032-7.035-1.668-13.844-4.295-20.169-7.808-3.06-1.7-6.825 0.485-6.868 3.985-0.438 35.612 20.412 67.3 51.646 81.569-0.629 0.015-1.258 0.022-1.888 0.022-4.951 0-9.964-0.478-14.898-1.421-3.446-0.658-6.341 2.611-5.271 5.952 10.138 31.651 37.39 54.981 70.002 60.278-27.066 18.169-58.585 27.753-91.39 27.753l-10.227-6e-3c-3.151 0-5.816 2.054-6.619 5.106-0.791 3.006 0.666 6.177 3.353 7.74 36.966 21.513 79.131 32.883 121.96 32.883 37.485 0 72.549-7.439 104.22-22.109 29.033-13.449 54.689-32.674 76.255-57.141 20.09-22.792 35.8-49.103 46.692-78.201 10.383-27.737 15.871-57.333 15.871-85.589v-1.346c-1e-3 -4.537 2.051-8.806 5.631-11.712 13.585-11.03 25.415-24.014 35.16-38.591 2.573-3.849-1.485-8.673-5.719-6.795z" style="fill:#f9f9f9"/></g><g transform="matrix(.028716 0 0 .03095 37.996 37.384)" style="fill:#f9f9f9"><path d="m403.63 74.18c-9.113 4.041-18.573 7.229-28.28 9.537 10.696-10.164 18.738-22.877 23.275-37.067 1.295-4.051-3.105-7.554-6.763-5.385-13.504 8.01-28.05 14.019-43.235 17.862-0.881 0.223-1.79 0.336-2.702 0.336-2.766 0-5.455-1.027-7.57-2.891-16.156-14.239-36.935-22.081-58.508-22.081-9.335 0-18.76 1.455-28.014 4.325-28.672 8.893-50.795 32.544-57.736 61.724-2.604 10.945-3.309 21.9-2.097 32.56 0.139 1.225-0.44 2.08-0.797 2.481-0.627 0.703-1.516 1.106-2.439 1.106-0.103 0-0.209-5e-3 -0.314-0.015-62.762-5.831-119.36-36.068-159.36-85.14-2.04-2.503-5.952-2.196-7.578 0.593-7.834 13.44-11.974 28.812-11.974 44.454 0 23.972 9.631 46.563 26.36 63.032-7.035-1.668-13.844-4.295-20.169-7.808-3.06-1.7-6.825 0.485-6.868 3.985-0.438 35.612 20.412 67.3 51.646 81.569-0.629 0.015-1.258 0.022-1.888 0.022-4.951 0-9.964-0.478-14.898-1.421-3.446-0.658-6.341 2.611-5.271 5.952 10.138 31.651 37.39 54.981 70.002 60.278-27.066 18.169-58.585 27.753-91.39 27.753l-10.227-6e-3c-3.151 0-5.816 2.054-6.619 5.106-0.791 3.006 0.666 6.177 3.353 7.74 36.966 21.513 79.131 32.883 121.96 32.883 37.485 0 72.549-7.439 104.22-22.109 29.033-13.449 54.689-32.674 76.255-57.141 20.09-22.792 35.8-49.103 46.692-78.201 10.383-27.737 15.871-57.333 15.871-85.589v-1.346c-1e-3 -4.537 2.051-8.806 5.631-11.712 13.585-11.03 25.415-24.014 35.16-38.591 2.573-3.849-1.485-8.673-5.719-6.795z" style="fill:#f9f9f9"/></g><g transform="matrix(.02184 0 0 .023122 55.889 3.3086)" style="fill:#f9f9f9"><g style="fill:#f9f9f9"><g style="fill:#f9f9f9"><polygon points="351.74 88.615 430.5 88.615 351.74 9.848" style="fill:#f9f9f9"/><path d="m332.04 108.31v-108.31h-299.78v472.62h408.08v-364.31zm-174.98 313.83h-72.615v-208.41h72.615zm115.55 0h-72.615v-149.33h72.615zm115.55 0h-72.615v-90.257h72.615z" style="fill:#f9f9f9"/></g></g></g><g transform="matrix(.02184 0 0 .023122 55.685 20.558)" style="fill:#f9f9f9"><g style="fill:#f9f9f9"><g style="fill:#f9f9f9"><polygon points="430.5 88.615 351.74 9.848 351.74 88.615" style="fill:#f9f9f9"/><path d="m332.04 108.31v-108.31h-299.78v472.62h408.08v-364.31zm-174.98 313.83h-72.615v-208.41h72.615zm115.55 0h-72.615v-149.33h72.615zm115.55 0h-72.615v-90.257h72.615z" style="fill:#f9f9f9"/></g></g></g><g transform="matrix(.02184 0 0 .023122 56.094 37.808)" style="fill:#f9f9f9"><g style="fill:#f9f9f9"><g style="fill:#f9f9f9"><polygon points="430.5 88.615 351.74 9.848 351.74 88.615" style="fill:#f9f9f9"/><path d="m332.04 108.31v-108.31h-299.78v472.62h408.08v-364.31zm-174.98 313.83h-72.615v-208.41h72.615zm115.55 0h-72.615v-149.33h72.615zm115.55 0h-72.615v-90.257h72.615z" style="fill:#f9f9f9"/></g></g></g><g transform="matrix(.038767 0 0 .038767 73.038 3.3992)" style="fill:#f9f9f9"><path d="m262.43 7.5c0-4.143-3.024-7.5-7.167-7.5h-231c-4.143 0-7.833 3.357-7.833 7.5v264c0 4.143 3.69 7.5 7.833 7.5h132.5c2.002 0 3.921-0.801 5.33-2.224l49.07-49.567 49.405-49.405c1.455-1.456 2.032-3.41 2.01-5.391 8e-3 -0.137-0.146-0.274-0.146-0.413zm-25.274 172.5-73.727 73.394v-73.394zm-155.14-140h115.5c4.556 0 8.25 3.944 8.25 8.5s-3.694 8.5-8.25 8.5h-115.5c-4.556 0-8.25-3.944-8.25-8.5s3.693-8.5 8.25-8.5zm0 41h115.5c4.556 0 8.25 3.944 8.25 8.5s-3.694 8.5-8.25 8.5h-115.5c-4.556 0-8.25-3.944-8.25-8.5s3.693-8.5 8.25-8.5zm-8.25 50c0-4.556 3.694-8 8.25-8h115.5c4.556 0 8.25 3.444 8.25 8s-3.694 8-8.25 8h-115.5c-4.557 0-8.25-3.444-8.25-8z" style="fill:#f9f9f9"/></g><g transform="matrix(.038767 0 0 .038767 73.038 20.81)" style="fill:#f9f9f9"><path d="m262.43 7.5c0-4.143-3.024-7.5-7.167-7.5h-231c-4.143 0-7.833 3.357-7.833 7.5v264c0 4.143 3.69 7.5 7.833 7.5h132.5c2.002 0 3.921-0.801 5.33-2.224l49.07-49.567 49.405-49.405c1.455-1.456 2.032-3.41 2.01-5.391 8e-3 -0.137-0.146-0.274-0.146-0.413zm-25.274 172.5-73.727 73.394v-73.394zm-155.14-140h115.5c4.556 0 8.25 3.944 8.25 8.5s-3.694 8.5-8.25 8.5h-115.5c-4.556 0-8.25-3.944-8.25-8.5s3.693-8.5 8.25-8.5zm0 41h115.5c4.556 0 8.25 3.944 8.25 8.5s-3.694 8.5-8.25 8.5h-115.5c-4.556 0-8.25-3.944-8.25-8.5s3.693-8.5 8.25-8.5zm-8.25 50c0-4.556 3.694-8 8.25-8h115.5c4.556 0 8.25 3.444 8.25 8s-3.694 8-8.25 8h-115.5c-4.557 0-8.25-3.444-8.25-8z" style="fill:#f9f9f9"/></g><g transform="matrix(.038767 0 0 .038767 73.038 38.221)" style="fill:#f9f9f9"><path d="m262.43 7.5c0-4.143-3.024-7.5-7.167-7.5h-231c-4.143 0-7.833 3.357-7.833 7.5v264c0 4.143 3.69 7.5 7.833 7.5h132.5c2.002 0 3.921-0.801 5.33-2.224l49.07-49.567 49.405-49.405c1.455-1.456 2.032-3.41 2.01-5.391 8e-3 -0.137-0.146-0.274-0.146-0.413zm-25.274 172.5-73.727 73.394v-73.394zm-155.14-140h115.5c4.556 0 8.25 3.944 8.25 8.5s-3.694 8.5-8.25 8.5h-115.5c-4.556 0-8.25-3.944-8.25-8.5s3.693-8.5 8.25-8.5zm0 41h115.5c4.556 0 8.25 3.944 8.25 8.5s-3.694 8.5-8.25 8.5h-115.5c-4.556 0-8.25-3.944-8.25-8.5s3.693-8.5 8.25-8.5zm-8.25 50c0-4.556 3.694-8 8.25-8h115.5c4.556 0 8.25 3.444 8.25 8s-3.694 8-8.25 8h-115.5c-4.557 0-8.25-3.444-8.25-8z" style="fill:#f9f9f9"/></g><g transform="matrix(.26458 0 0 .26458 86.957 .13529)" style="fill:#f9f9f9"><path class="cls-1" d="m33 30a2.86 2.86 0 0 0-2.8 2.8 2.8 2.8 0 0 0 5.6 0 2.86 2.86 0 0 0-2.8-2.8z" style="fill:#f9f9f9"/><path class="cls-1" d="m47.9 31.05a15.09 15.09 0 0 0-13.3-13.3v-5.4h-3.3v5.4a15.09 15.09 0 0 0-13.3 13.3h-5.3v3.3h5.4a15.09 15.09 0 0 0 13.3 13.3v5.4h3.3v-5.4a15.09 15.09 0 0 0 13.3-13.3h5.3v-3.3zm-3.4 3.3a12.28 12.28 0 0 1-3.3 6.5 10.74 10.74 0 0 1-6.5 3.3v-1.7h-3.3v1.7a12.28 12.28 0 0 1-6.5-3.3 10.74 10.74 0 0 1-3.3-6.5h1.7v-3.3h-1.7a12.28 12.28 0 0 1 3.3-6.5 10.74 10.74 0 0 1 6.5-3.3v1.75h3.3v-1.7a12.28 12.28 0 0 1 6.5 3.3 10.75 10.75 0 0 1 3.3 6.5h-1.7v3.3z" style="fill:#f9f9f9"/></g><g transform="matrix(.26458 0 0 .26458 86.957 17.378)" style="fill:#f9f9f9"><path class="cls-1" d="m33 30a2.86 2.86 0 0 0-2.8 2.8 2.8 2.8 0 0 0 5.6 0 2.86 2.86 0 0 0-2.8-2.8z" style="fill:#f9f9f9"/><path class="cls-1" d="m47.9 31.05a15.09 15.09 0 0 0-13.3-13.3v-5.4h-3.3v5.4a15.09 15.09 0 0 0-13.3 13.3h-5.3v3.3h5.4a15.09 15.09 0 0 0 13.3 13.3v5.4h3.3v-5.4a15.09 15.09 0 0 0 13.3-13.3h5.3v-3.3zm-3.4 3.3a12.28 12.28 0 0 1-3.3 6.5 10.74 10.74 0 0 1-6.5 3.3v-1.7h-3.3v1.7a12.28 12.28 0 0 1-6.5-3.3 10.74 10.74 0 0 1-3.3-6.5h1.7v-3.3h-1.7a12.28 12.28 0 0 1 3.3-6.5 10.74 10.74 0 0 1 6.5-3.3v1.75h3.3v-1.7a12.28 12.28 0 0 1 6.5 3.3 10.75 10.75 0 0 1 3.3 6.5h-1.7v3.3z" style="fill:#f9f9f9"/></g><g transform="matrix(.26458 0 0 .26458 86.957 34.62)" style="fill:#f9f9f9"><path class="cls-1" d="m33 30a2.86 2.86 0 0 0-2.8 2.8 2.8 2.8 0 0 0 5.6 0 2.86 2.86 0 0 0-2.8-2.8z" style="fill:#f9f9f9"/><path class="cls-1" d="m47.9 31.05a15.09 15.09 0 0 0-13.3-13.3v-5.4h-3.3v5.4a15.09 15.09 0 0 0-13.3 13.3h-5.3v3.3h5.4a15.09 15.09 0 0 0 13.3 13.3v5.4h3.3v-5.4a15.09 15.09 0 0 0 13.3-13.3h5.3v-3.3zm-3.4 3.3a12.28 12.28 0 0 1-3.3 6.5 10.74 10.74 0 0 1-6.5 3.3v-1.7h-3.3v1.7a12.28 12.28 0 0 1-6.5-3.3 10.74 10.74 0 0 1-3.3-6.5h1.7v-3.3h-1.7a12.28 12.28 0 0 1 3.3-6.5 10.74 10.74 0 0 1 6.5-3.3v1.75h3.3v-1.7a12.28 12.28 0 0 1 6.5 3.3 10.75 10.75 0 0 1 3.3 6.5h-1.7v3.3z" style="fill:#f9f9f9"/></g><g transform="matrix(.027988 0 0 .027639 108.64 3.3088)" style="fill:#f9f9f9"><g style="fill:#f9f9f9"><path d="m374.2 241.49-25.323-71.712 25.568-72.409c1.356-3.843 0.765-8.104-1.59-11.432-2.354-3.328-6.176-5.306-10.251-5.306h-129.27c-7.979 0-7.596-4.415-7.596-4.415 0-27.587-16.988-39.896-36.559-39.896h-107.17c2.44-3.742 3.82-8.172 3.82-12.816 0-12.958-10.542-23.5-23.5-23.5h-15c-12.958 0-23.5 10.542-23.5 23.5 0 8.14 4.226 15.629 11 19.889v355.61h40v-161.69h115.5c1.922 0 5.411 0.578 5.411 6v0.614c0 8.284 6.716 15 15 15 0.015 0 0.027-2e-3 0.043-2e-3 0.014 0 0.027 2e-3 0.041 2e-3h151.78 0.021c6.935 0 12.556-5.622 12.556-12.557-1e-3 -1.729-0.35-3.378-0.982-4.878z" style="fill:#f9f9f9"/></g></g><g transform="matrix(.027988 0 0 .027639 108.67 20.216)" style="fill:#f9f9f9"><g style="fill:#f9f9f9"><path d="m374.2 241.49-25.323-71.712 25.568-72.409c1.356-3.843 0.765-8.104-1.59-11.432-2.354-3.328-6.176-5.306-10.251-5.306h-129.27c-7.979 0-7.596-4.415-7.596-4.415 0-27.587-16.988-39.896-36.559-39.896h-107.17c2.44-3.742 3.82-8.172 3.82-12.816 0-12.958-10.542-23.5-23.5-23.5h-15c-12.958 0-23.5 10.542-23.5 23.5 0 8.14 4.226 15.629 11 19.889v355.61h40v-161.69h115.5c1.922 0 5.411 0.578 5.411 6v0.614c0 8.284 6.716 15 15 15 0.015 0 0.027-2e-3 0.043-2e-3 0.014 0 0.027 2e-3 0.041 2e-3h151.78 0.021c6.935 0 12.556-5.622 12.556-12.557-1e-3 -1.729-0.35-3.378-0.982-4.878z" style="fill:#f9f9f9"/></g></g><g transform="matrix(.027988 0 0 .027639 108.56 37.629)" style="fill:#f9f9f9"><g style="fill:#f9f9f9"><path d="m374.2 241.49-25.323-71.712 25.568-72.409c1.356-3.843 0.765-8.104-1.59-11.432-2.354-3.328-6.176-5.306-10.251-5.306h-129.27c-7.979 0-7.596-4.415-7.596-4.415 0-27.587-16.988-39.896-36.559-39.896h-107.17c2.44-3.742 3.82-8.172 3.82-12.816 0-12.958-10.542-23.5-23.5-23.5h-15c-12.958 0-23.5 10.542-23.5 23.5 0 8.14 4.226 15.629 11 19.889v355.61h40v-161.69h115.5c1.922 0 5.411 0.578 5.411 6v0.614c0 8.284 6.716 15 15 15 0.015 0 0.027-2e-3 0.043-2e-3 0.014 0 0.027 2e-3 0.041 2e-3h151.78 0.021c6.935 0 12.556-5.622 12.556-12.557-1e-3 -1.729-0.35-3.378-0.982-4.878z" style="fill:#f9f9f9"/></g></g></g><style type="text/css">.st0{fill:#504F4B;}
	.st1{fill-rule:evenodd;clip-rule:evenodd;fill:#504F4B;}
	.st2{fill:#FFFFFF;}
	.st3{fill:#B24E11;}
	.st4{fill:#BD4E11;}
	.st5{fill:#4299BC;}
	.st6{fill:#61BC74;}
	.st7{fill:#DDB237;}
	.st8{fill:#42BDB3;}
	.st9{fill:#CF6041;}
	.st10{fill:#333333;}
	.st11{fill:#E2E2E2;}
	.st12{fill:#504F4A;}</style><style type="text/css">.st0{fill:#BD4E11;}
	.st1{fill:#EBEBEB;}
	.st2{fill:#504F4B;}
	.st3{fill:#61BC74;}
	.st4{fill:#F6F6F6;}
	.st5{fill:#232323;}</style></svg>
